<?xml version="1.0" encoding="utf-8"?>
<!DOCTYPE svg PUBLIC "-//W3C//DTD SVG 1.1 Tiny//EN" "http://www.w3.org/Graphics/SVG/1.1/DTD/svg11-tiny.dtd">
<svg xmlns="http://www.w3.org/2000/svg" xmlns:xlink="http://www.w3.org/1999/xlink" version="1.1" baseProfile="tiny" x="0px" y="0px" width="480px" height="480px" viewBox="0 0 480 480" xml:space="preserve">
  <g id="agenda">
  	<path d="M308.85,418.895c-2.955,3.262-7.797,3.262-10.752,0.013l-79.029-86.64c-2.973-3.249-2.848-8.47,0.264-11.58l23.578-23.562   c3.111-3.11,8.172-3.076,11.219,0.078l43.658,45.095c3.062,3.171,8,3.094,10.967-0.155l82.783-90.704   c2.969-3.248,8.064-3.499,11.342-0.564l26.154,23.518c3.285,2.938,3.535,8.017,0.578,11.266L308.85,418.895z"/>
  	<path d="M356.926,64.829H113.303c-11.484,0-20.891,9.393-20.891,20.873v285.409c0,11.485,9.406,20.873,20.891,20.873h131.969   l-42.344-46.419c-10.174-11.158-9.768-28.234,0.906-38.908l25.047-25.029c5.25-5.25,12.201-8.128,19.609-8.128   c7.467,0,14.732,3.08,19.92,8.439l34.502,35.624l73.904-80.97c0.297-0.341,0.672-0.578,1-0.889V85.702   C377.817,74.222,368.411,64.829,356.926,64.829z M160.725,210.564c0,3.827-3.141,6.968-6.969,6.968h-14.143   c-3.826,0-6.951-3.141-6.951-6.968v-6.955c0-3.827,3.125-6.968,6.951-6.968h14.143c3.828,0,6.969,3.141,6.969,6.968V210.564z    M160.725,147.706c0,3.827-3.141,6.951-6.969,6.951h-14.143c-3.826,0-6.951-3.124-6.951-6.951v-6.972   c0-3.827,3.125-6.951,6.951-6.951h14.143c3.828,0,6.969,3.124,6.969,6.951V147.706z M328.006,210.564   c0,3.827-3.141,6.968-6.969,6.968H188.786c-3.826,0-6.967-3.141-6.967-6.968v-6.955c0-3.827,3.141-6.968,6.967-6.968h132.252   c3.828,0,6.969,3.141,6.969,6.968V210.564z M328.006,147.706c0,3.827-3.141,6.951-6.969,6.951H188.786   c-3.826,0-6.967-3.124-6.967-6.951v-6.972c0-3.827,3.141-6.951,6.967-6.951h132.252c3.828,0,6.969,3.124,6.969,6.951V147.706z"/>
  </g>
</svg>
