<?xml version="1.0" encoding="utf-8"?>
<!DOCTYPE svg PUBLIC "-//W3C//DTD SVG 1.1 Tiny//EN" "http://www.w3.org/Graphics/SVG/1.1/DTD/svg11-tiny.dtd">
<svg xmlns="http://www.w3.org/2000/svg" xmlns:xlink="http://www.w3.org/1999/xlink" version="1.1" baseProfile="tiny" x="0px" y="0px" width="480px" height="480px" viewBox="0 0 480 480" xml:space="preserve">
  <g id="backspace">
  	<path d="M394.334,111.438h-217.99c-11.916,0-28.018,7.391-35.779,16.438l-78.744,91.688c-7.762,9.047-7.762,23.829,0,32.876   l78.744,91.7c7.762,9.035,23.863,16.438,35.779,16.438h217.99c11.908,0,21.668-9.764,21.668-21.672v-205.81   C416.002,121.188,406.243,111.438,394.334,111.438z M357.024,264.205c4.211,4.22,4.211,11.11,0,15.312l-22.975,22.983   c-4.211,4.202-11.102,4.202-15.312,0l-27.363-27.358l-27.35,27.358c-4.211,4.202-11.109,4.202-15.32,0l-22.975-22.983   c-4.211-4.202-4.211-11.093,0-15.312l27.358-27.358l-27.358-27.345c-4.211-4.22-4.211-11.11,0-15.329l22.975-22.967   c4.211-4.22,11.109-4.22,15.32,0l27.35,27.358l27.363-27.358c4.211-4.22,11.102-4.22,15.312,0l22.975,22.967   c4.211,4.219,4.211,11.109,0,15.329l-27.35,27.345L357.024,264.205z"/>
  </g>
</svg>
