<?xml version="1.0" encoding="utf-8"?>
<!DOCTYPE svg PUBLIC "-//W3C//DTD SVG 1.1 Tiny//EN" "http://www.w3.org/Graphics/SVG/1.1/DTD/svg11-tiny.dtd">
<svg xmlns="http://www.w3.org/2000/svg" xmlns:xlink="http://www.w3.org/1999/xlink" version="1.1" baseProfile="tiny" x="0px" y="0px" width="480px" height="480px" viewBox="0 0 480 480" xml:space="preserve">
  <g id="bell">
  	<path d="M381.834,361.391c5.045,0,9.174-4.125,9.174-9.168v-14.657c0-5.048-3.158-11.848-6.986-15.109   c0,0-59.893-50.876-64.393-131.984c-5.389-97.003-54.984-93.017-80.742-93.017s-75.348-3.986-80.742,93.017   c-4.508,81.108-64.389,131.984-64.389,131.984c-3.836,3.262-6.986,10.062-6.986,15.109v14.657c0,5.043,4.125,9.168,9.174,9.168   H381.834z"/>
  	<path d="M236.022,79.188h2.865h2.869l3.365-0.013c7.93,0,16.131,0.53,24.188,2.235v-7.158c0-10.031-8.211-18.25-18.256-18.25   h-24.328c-10.049,0-18.26,8.219-18.26,18.25v7.158c8.055-1.705,16.258-2.235,24.188-2.235L236.022,79.188z"/>
  	<path d="M202.381,379.641c0,16.736,13.686,36.363,30.422,36.363h12.172c16.736,0,30.422-19.627,30.422-36.363l0,0H202.381   L202.381,379.641z"/>
  </g>
</svg>
