<?xml version="1.0" encoding="utf-8"?>
<!DOCTYPE svg PUBLIC "-//W3C//DTD SVG 1.1 Tiny//EN" "http://www.w3.org/Graphics/SVG/1.1/DTD/svg11-tiny.dtd">
<svg xmlns="http://www.w3.org/2000/svg" xmlns:xlink="http://www.w3.org/1999/xlink" version="1.1" baseProfile="tiny" x="0px" y="0px" width="480px" height="480px" viewBox="0 0 480 480" xml:space="preserve">
  <g id="block_user">
  	<path d="M313.163,261.19c-3.326,0-3.439-8.486-3.439-13.206c0-5.795,0.768-9.001,0.768-9.001c9.92,0,24.939-16.576,29.779-31.857   c2.719-8.607,18.078-10.17,18.078-32.968c0-19.967-8.828-14.436-8.828-15.938c0-1.484,0-21.719,0-33.61   c0-22.047-19.688-65.532-81.781-65.532s-81.781,43.485-81.781,65.532c0,11.892,0,32.126,0,33.61c0,1.502-8.844-4.029-8.844,15.938   c0,22.798,15.359,24.36,18.094,32.968c2.814,8.892,9.064,18.202,15.766,24.437c2.127,1.562,4.25,3.129,6.252,4.828   c2.748,1.627,5.406,2.593,7.766,2.593c0,0,0.436,1.86,0.639,5.286c19.52,20.188,31.596,47.605,31.596,77.824   c0,22.125-6.533,42.723-17.625,60.11h28.139h145.062c0,0,0-29.076,0-52.356C412.801,311.645,367.116,261.19,313.163,261.19z"/>
  	<path d="M145.129,229.781c-50.998,0-92.326,41.328-92.326,92.312s41.328,92.313,92.326,92.313   c50.984,0,92.312-41.329,92.312-92.313S196.114,229.781,145.129,229.781z M202.819,322.094c0,9.626-2.391,18.674-6.562,26.643   l-77.781-77.765c7.986-4.189,17.029-6.58,26.654-6.58C176.946,264.392,202.819,290.283,202.819,322.094z M87.428,322.094   c0-9.608,2.389-18.669,6.578-26.638l77.766,77.765c-7.969,4.186-17.033,6.58-26.643,6.58   C113.301,379.801,87.428,353.909,87.428,322.094z"/>
  </g>
</svg>
