<?xml version="1.0" encoding="utf-8"?>
<!DOCTYPE svg PUBLIC "-//W3C//DTD SVG 1.1 Tiny//EN" "http://www.w3.org/Graphics/SVG/1.1/DTD/svg11-tiny.dtd">
<svg xmlns="http://www.w3.org/2000/svg" xmlns:xlink="http://www.w3.org/1999/xlink" version="1.1" baseProfile="tiny" x="0px" y="0px" width="480px" height="480px" viewBox="0 0 480 480" xml:space="preserve">
  <g id="camera">
  	<path d="M241.098,202.438c-31.012,0-56.248,25.253-56.248,56.253c0,31.03,25.236,56.248,56.248,56.248   c31.018,0,56.252-25.218,56.252-56.248C297.35,227.69,272.116,202.438,241.098,202.438z"/>
  	<path d="M406.102,131.719H301.1v-16.451c0-16.516-13.5-30.003-29.998-30.003H211.1c-16.5,0-30,13.487-30,30.003v16.451h-14.297   c-8.25,0-21.094,2.908-28.533,6.468l-63.639,30.378c-7.438,3.547-13.529,13.203-13.529,21.47v181.688   c0,8.249,6.748,14.997,14.996,14.997h330.004c8.25,0,14.998-6.748,14.998-14.997V146.721   C421.1,138.471,414.352,131.719,406.102,131.719z M241.098,352.44c-51.777,0-93.75-41.972-93.75-93.75   c0-51.766,41.973-93.737,93.75-93.737c51.766,0,93.75,41.972,93.75,93.737C334.848,310.469,292.864,352.44,241.098,352.44z"/>
  	<path d="M128.598,117.878v-17.142H68.6V146.5l59.967-28.609C128.567,117.878,128.584,117.878,128.598,117.878z"/>
  </g>
</svg>
