<?xml version="1.0" encoding="utf-8"?>
<!DOCTYPE svg PUBLIC "-//W3C//DTD SVG 1.1 Tiny//EN" "http://www.w3.org/Graphics/SVG/1.1/DTD/svg11-tiny.dtd">
<svg xmlns="http://www.w3.org/2000/svg" xmlns:xlink="http://www.w3.org/1999/xlink" version="1.1" baseProfile="tiny" x="0px" y="0px" width="480px" height="480px" viewBox="0 0 480 480" xml:space="preserve">
  <g id="clock">
  	<path d="M237.225,55.998c-99.404,0-180,80.596-180,180.001c0,99.415,80.596,180.001,180,180.001   c99.406,0,179.998-80.586,179.998-180.001C417.223,136.594,336.631,55.998,237.225,55.998z M237.225,368.002   c-72.781,0-132.002-59.213-132.002-132.003c0-72.781,59.221-131.997,132.002-131.997s131.998,59.216,131.998,131.997   C369.223,308.789,310.006,368.002,237.225,368.002z"/>
  	<path d="M309.913,220.001h-60.658c-4.396,0-10.531-2.554-13.625-5.682l-50.717-51.227c-3.102-3.123-8.189-3.149-11.32-0.047   l-11.361,11.252c-3.133,3.103-3.154,8.185-0.057,11.312l60.111,60.709c3.092,3.124,9.229,5.679,13.625,5.679h74.002   c4.393,0,7.998-3.59,7.998-8V228C317.911,223.608,314.305,220.001,309.913,220.001z"/>
  </g>
</svg>
