<?xml version="1.0" encoding="utf-8"?>
<!DOCTYPE svg PUBLIC "-//W3C//DTD SVG 1.1 Tiny//EN" "http://www.w3.org/Graphics/SVG/1.1/DTD/svg11-tiny.dtd">
<svg xmlns="http://www.w3.org/2000/svg" xmlns:xlink="http://www.w3.org/1999/xlink" version="1.1" baseProfile="tiny" x="0px" y="0px" width="480px" height="480px" viewBox="0 0 480 480" xml:space="preserve">
  <g id="map_pin">
    <path d="M240,79.57c-59.094,0-106.992,47.898-106.992,106.992c0,25.367,8.836,48.68,23.594,67.016c17.914,22.273,56.461,42.32,64.117,130.734c0,5.188,3.219,16.117,19.281,16.117c16.055,0,19.57-10.938,19.57-16.117c7.656-88.414,45.914-108.469,63.828-130.734c14.766-18.328,23.594-41.647,23.594-67.016C346.992,127.469,299.078,79.57,240,79.57zM238.328,221.312c-19.109,0-34.594-15.492-34.594-34.602c0-19.102,15.484-34.594,34.594-34.594c19.109,0,34.602,15.493,34.602,34.595C272.93,205.829,257.438,221.312,238.328,221.312z"/>
  </g>
</svg>
