<?xml version="1.0" encoding="utf-8"?>
<!DOCTYPE svg PUBLIC "-//W3C//DTD SVG 1.1 Tiny//EN" "http://www.w3.org/Graphics/SVG/1.1/DTD/svg11-tiny.dtd">
<svg xmlns="http://www.w3.org/2000/svg" xmlns:xlink="http://www.w3.org/1999/xlink" version="1.1" baseProfile="tiny" x="0px" y="0px" width="480px" height="480px" viewBox="0 0 480 480" xml:space="preserve">
  <g id="notification">
  	<path d="M355.473,83.688H133.936c-38.08,0-69.234,31.405-69.234,69.796v97.706c0,38.373,31.154,69.796,69.234,69.796h128.701   l76.781,63.483c8.828,7.296,16.055,3.861,16.055-7.653v-55.83c38.078,0,69.225-31.423,69.225-69.796v-97.706   C424.698,115.094,393.551,83.688,355.473,83.688z M265.471,284.455c0,7.624-6.225,13.846-13.85,13.846h-13.844   c-7.607,0-13.842-6.222-13.842-13.846V256.77c0-7.628,6.234-13.846,13.842-13.846h13.844c7.625,0,13.85,6.218,13.85,13.846V284.455   z M265.471,201.375c0,7.629-6.225,13.846-13.85,13.846h-13.844c-7.607,0-13.842-6.217-13.842-13.846V118.3   c0-7.611,6.234-13.846,13.842-13.846h13.844c7.625,0,13.85,6.234,13.85,13.846V201.375z"/>
  </g>
</svg>
