<?xml version="1.0" encoding="utf-8"?>
<!DOCTYPE svg PUBLIC "-//W3C//DTD SVG 1.1 Tiny//EN" "http://www.w3.org/Graphics/SVG/1.1/DTD/svg11-tiny.dtd">
<svg xmlns="http://www.w3.org/2000/svg" xmlns:xlink="http://www.w3.org/1999/xlink" version="1.1" baseProfile="tiny" x="0px" y="0px" width="480px" height="480px" viewBox="0 0 480 480" xml:space="preserve">
  <g id="phone">
  	<path fill-rule="evenodd" d="M414.053,123.045c0,0-44.771-63.497-87.594-63.497c-32.389,0-59.242,3.939-112.793,47.749   c-30.224,24.006-33.162,27.712-41.354,35.53C84.148,226.968,58.503,276.736,57.243,319.54   c-1.269,42.796,60.874,89.422,60.874,89.422c7.727,5.812,18.75,4.194,24.488-3.572l49.013-66.326   c5.734-7.767,4.867-19.743-1.945-26.586c0,0-3.089-2.839-25.986-27.126c-22.884-24.299,6.825-52.312,6.825-52.312l24.136-24.908   c1.558-1.147,3.028-2.321,4.258-3.442l37.739-34.486c0,0,28.889-28.868,52.499-5.264c23.596,23.609,26.336,26.771,26.336,26.771   c6.648,7.016,18.574,8.249,26.508,2.735l67.756-47.032C417.676,141.912,419.61,130.944,414.053,123.045z"/>
  </g>
</svg>
