<?xml version="1.0" encoding="utf-8"?>
<!DOCTYPE svg PUBLIC "-//W3C//DTD SVG 1.1 Tiny//EN" "http://www.w3.org/Graphics/SVG/1.1/DTD/svg11-tiny.dtd">
<svg xmlns="http://www.w3.org/2000/svg" xmlns:xlink="http://www.w3.org/1999/xlink" version="1.1" baseProfile="tiny" x="0px" y="0px" width="480px" height="480px" viewBox="0 0 480 480" xml:space="preserve">
  <g id="position">
  	<path d="M318.506,236.002c0,43.969-35.643,79.615-79.615,79.615c-43.969,0-79.623-35.646-79.623-79.615   c0-43.97,35.654-79.62,79.623-79.62C282.864,156.382,318.506,192.032,318.506,236.002z"/>
  	<path d="M411.977,222.156h-35.314c-6.502-65.412-58.518-117.424-123.926-123.921V62.921c0-3.806-3.123-6.92-6.92-6.92h-13.846   c-3.814,0-6.92,3.114-6.92,6.92v35.314c-65.426,6.497-117.428,58.509-123.922,123.921H65.811c-3.805,0-6.926,3.11-6.926,6.921   v13.845c0,3.814,3.121,6.921,6.926,6.921h35.318c6.494,65.416,58.496,117.423,123.922,123.925v35.311   c0,3.805,3.105,6.925,6.92,6.925h13.846c3.797,0,6.92-3.12,6.92-6.925v-35.311c65.408-6.502,117.424-58.509,123.926-123.925h35.314   c3.795,0,6.92-3.106,6.92-6.921v-13.845C418.897,225.267,415.772,222.156,411.977,222.156z M238.891,346.768   c-61.076,0-110.77-49.69-110.77-110.766c0-61.081,49.693-110.767,110.77-110.767c61.084,0,110.771,49.686,110.771,110.767   C349.663,297.077,299.975,346.768,238.891,346.768z"/>
  </g>
</svg>
