<?xml version="1.0" encoding="utf-8"?>
<!DOCTYPE svg PUBLIC "-//W3C//DTD SVG 1.1 Tiny//EN" "http://www.w3.org/Graphics/SVG/1.1/DTD/svg11-tiny.dtd">
<svg xmlns="http://www.w3.org/2000/svg" xmlns:xlink="http://www.w3.org/1999/xlink" version="1.1" baseProfile="tiny" x="0px" y="0px" width="480px" height="480px" viewBox="0 0 480 480" xml:space="preserve">
  <g id="share">
  	<path d="M308.934,339.798c0,40.271-32.656,72.928-72.937,72.928c-40.275,0-72.932-32.656-72.932-72.928   c0-40.28,32.656-72.937,72.932-72.937C276.278,266.861,308.934,299.518,308.934,339.798z"/>
  	<path d="M381.823,59.273l-140.294,59.178l40.085,20.464l-44.391,85.927l-44.396-85.927l40.087-20.464L92.622,59.273l-35.4,148.82   l39.392-20.102l50.165,97.11c18.432-30.003,51.429-50.065,89.219-50.065c38.697,0,72.398,21.042,90.541,52.228l51.285-99.272   l39.4,20.102L381.823,59.273z"/>
  </g>
</svg>
