<?xml version="1.0" encoding="utf-8"?>
<!DOCTYPE svg PUBLIC "-//W3C//DTD SVG 1.1 Tiny//EN" "http://www.w3.org/Graphics/SVG/1.1/DTD/svg11-tiny.dtd">
<svg xmlns="http://www.w3.org/2000/svg" xmlns:xlink="http://www.w3.org/1999/xlink" version="1.1" baseProfile="tiny" x="0px" y="0px" width="480px" height="480px" viewBox="0 0 480 480" xml:space="preserve">
  <g id="user">
  	<path d="M288.694,277.547c-3.758,0-3.891-2.14-3.891-7.485c0-6.575,0.867-10.17,0.867-10.17c11.248,0,28.268-18.811,33.748-36.125   c3.08-9.751,20.494-11.532,20.494-37.359c0-22.643-10.02-16.378-10.02-18.064c0-1.688,0-24.623,0-38.093   c0-24.985-22.301-74.248-92.67-74.248c-70.365,0-92.671,49.263-92.671,74.248c0,13.47,0,36.405,0,38.093   c0,1.687-10.014-4.578-10.014,18.064c0,25.827,17.408,27.608,20.489,37.359c5.479,17.314,22.5,36.125,33.752,36.125   c0,0,0.867,3.595,0.867,10.17c0,5.346-0.138,7.485-3.896,7.485c-61.162,0-105.455,64.64-105.455,85.28c0,26.392,0,53.172,0,53.172   h156.927h156.926c0,0,0-26.78,0-53.172C394.149,342.187,349.862,277.547,288.694,277.547z"/>
  </g>
</svg>
