<?xml version="1.0" encoding="utf-8"?>
<!DOCTYPE svg PUBLIC "-//W3C//DTD SVG 1.1 Tiny//EN" "http://www.w3.org/Graphics/SVG/1.1/DTD/svg11-tiny.dtd">
<svg xmlns="http://www.w3.org/2000/svg" xmlns:xlink="http://www.w3.org/1999/xlink" version="1.1" baseProfile="tiny" x="0px" y="0px" width="480px" height="480px" viewBox="0 0 480 480" xml:space="preserve">
  <g id="accounts">
  	<rect x="137.215" y="356.269" width="280.01" height="58.953"/>
  	<path d="M238.17,163.769l8.201,8.201c2.041-2.359,3.658-5.186,4.857-8.201H238.17z"/>
  	<path d="M274.264,163.769c-1.932,8.326-5.635,16.248-11.174,22.655l-1.045,1.217l35.068,35.081h120.111v-58.953H274.264z"/>
  	<polygon points="193.393,267.847 137.215,267.847 137.215,326.8 251.475,326.8  "/>
  	<path d="M327.053,252.643l21.529,21.529c8.582,8.581,12.119,22.69,8.586,34.33l-5.562,18.298h65.619v-74.157H327.053z"/>
  	<path d="M250.85,138.002c0,0-4.15-8.124-27.75-34.813c-23.602-26.673-39.125-40.405-39.125-40.405   c-9.104-8.047-23.938-7.986-32.98,0.138c0,0-31.801,28.674-47.848,43.128c-16.049,14.453-39.93,43.344-39.93,43.344   c-7.744,9.357-8.025,24.92-0.627,34.563c0,0,10.305,13.435,38.865,37.687c28.566,24.265,36.52,28.812,36.52,28.812   c10.311,5.876,25.484,3.952,34.195-4.155l-18.229-18.487c-11.32-11.516-11.248-30.171,0.182-41.592l32.406-32.406   c5.553-5.562,12.961-8.625,20.834-8.625c7.883,0,15.291,3.063,20.844,8.625l18.164,18.155   C253.995,163.143,256.092,148.313,250.85,138.002z M134.147,163.471c-16.283,0-29.477-13.203-29.477-29.485   c0-16.279,13.193-29.468,29.477-29.468c16.27,0,29.469,13.188,29.469,29.468C163.616,150.268,150.417,163.471,134.147,163.471z"/>
  	<path d="M332.952,289.812L212.577,169.438c-2.861-2.856-7.555-2.856-10.416,0l-4.867,4.862l124.125,123.015v15.671h-13.193   L183.418,188.175l-13.672,13.669c-2.865,2.86-2.873,7.58-0.049,10.471L281.872,326.14c2.838,2.908,8.486,5.269,12.543,5.269h25.324   c4.057,0,8.336-3.188,9.514-7.063l6.762-22.279C337.192,298.19,335.821,292.673,332.952,289.812z"/>
  </g>
</svg>
