<?xml version="1.0" encoding="utf-8"?>
<!DOCTYPE svg PUBLIC "-//W3C//DTD SVG 1.1 Tiny//EN" "http://www.w3.org/Graphics/SVG/1.1/DTD/svg11-tiny.dtd">
<svg xmlns="http://www.w3.org/2000/svg" xmlns:xlink="http://www.w3.org/1999/xlink" version="1.1" baseProfile="tiny" x="0px" y="0px" width="480px" height="480px" viewBox="0 0 480 480" xml:space="preserve">
  <g id="barcode">
  	<path d="M110.161,352.465c0,5.829-4.764,10.593-10.592,10.593H67.801c-5.812,0-10.574-4.764-10.574-10.593V119.525   c0-5.82,4.762-10.584,10.574-10.584h31.768c5.828,0,10.592,4.764,10.592,10.584V352.465z"/>
  	<path d="M311.333,352.465c0,5.829-4.764,10.593-10.578,10.593h-21.186c-5.811,0-10.578-4.764-10.578-10.593V119.525   c0-5.82,4.768-10.584,10.578-10.584h21.186c5.814,0,10.578,4.764,10.578,10.584V352.465z"/>
  	<path d="M417.223,352.465c0,5.829-4.764,10.593-10.592,10.593h-21.172c-5.828,0-10.596-4.764-10.596-10.593V119.525   c0-5.82,4.768-10.584,10.596-10.584h21.172c5.828,0,10.592,4.764,10.592,10.584V352.465z"/>
  	<path d="M163.1,352.465c0,5.829-4.768,10.593-10.58,10.593h-10.592c-5.828,0-10.596-4.764-10.596-10.593V119.525   c0-5.82,4.768-10.584,10.596-10.584h10.592c5.812,0,10.58,4.764,10.58,10.584V352.465z"/>
  	<path d="M247.801,352.465c0,5.829-4.762,10.593-10.578,10.593h-10.592c-5.812,0-10.594-4.764-10.594-10.593V119.525   c0-5.82,4.781-10.584,10.594-10.584h10.592c5.816,0,10.578,4.764,10.578,10.584V352.465z"/>
  	<path d="M194.868,352.465c0,5.829-4.768,10.593-10.58,10.593l0,0c-5.828,0-10.596-4.764-10.596-10.593V119.525   c0-5.82,4.768-10.584,10.596-10.584l0,0c5.812,0,10.58,4.764,10.58,10.584V352.465z"/>
  	<path d="M364.29,352.465c0,5.829-4.785,10.593-10.598,10.593l0,0c-5.828,0-10.592-4.764-10.592-10.593V119.525   c0-5.82,4.764-10.584,10.592-10.584l0,0c5.812,0,10.598,4.764,10.598,10.584V352.465z"/>
  </g>
</svg>
