<?xml version="1.0" encoding="utf-8"?>
<!DOCTYPE svg PUBLIC "-//W3C//DTD SVG 1.1 Tiny//EN" "http://www.w3.org/Graphics/SVG/1.1/DTD/svg11-tiny.dtd">
<svg xmlns="http://www.w3.org/2000/svg" xmlns:xlink="http://www.w3.org/1999/xlink" version="1.1" baseProfile="tiny" x="0px" y="0px" width="480px" height="480px" viewBox="0 0 480 480" xml:space="preserve">
  <g id="bookmarks">
  	<path d="M345.68,352.734c0,4.971-4.082,9.048-9.049,9.048H137.807c-4.971,0-9.039-4.077-9.039-9.048V135.827   c0-4.966,4.068-9.03,9.039-9.03h80.586V72.581H83.579c-4.967,0-9.031,4.061-9.031,9.03v325.361c0,4.966,4.064,9.029,9.031,9.029   h307.287c4.971,0,9.029-4.063,9.029-9.029V81.611c0-4.97-4.059-9.03-9.029-9.03H345.68V352.734z"/>
  	<path d="M327.598,218.675c0,4.966-3.172,6.484-7.029,3.356l-31.125-25.153c-3.873-3.128-10.203-3.128-14.064,0l-31.129,25.153   c-3.867,3.128-7.029,1.609-7.029-3.356V65.031c0-4.967,4.068-9.03,9.039-9.03h72.295c4.965,0,9.043,4.063,9.043,9.03V218.675z"/>
  </g>
</svg>
