<?xml version="1.0" encoding="utf-8"?>
<!DOCTYPE svg PUBLIC "-//W3C//DTD SVG 1.1 Tiny//EN" "http://www.w3.org/Graphics/SVG/1.1/DTD/svg11-tiny.dtd">
<svg xmlns="http://www.w3.org/2000/svg" xmlns:xlink="http://www.w3.org/1999/xlink" version="1.1" baseProfile="tiny" x="0px" y="0px" width="480px" height="480px" viewBox="0 0 480 480" xml:space="preserve">
  <g id="compass">
  	<path d="M417.211,240.764l-134.035-27.919l22.924-40.919l-40.186,24.234L237.223,60.768L208.536,196.16l-40.186-24.234   l22.924,40.919L57.239,240.764h-0.012l0,0h0.012l134.035,27.919l-22.924,40.915l40.186-24.23l28.688,135.397l28.691-135.397   l40.186,24.23l-22.924-40.915L417.211,240.764h0.012l0,0H417.211z M237.223,275.176c-18.998,0-34.404-15.398-34.404-34.412   c0-19.001,15.406-34.408,34.404-34.408c19.018,0,34.408,15.407,34.408,34.408C271.631,259.777,256.241,275.176,237.223,275.176z"/>
  	<path d="M148.897,205.445c9.639-23.976,28.717-43.141,52.641-52.87l9.936-46.929c-55.359,10.519-98.953,54.164-109.406,109.554   L148.897,205.445z"/>
  	<path d="M325.786,276.03c-9.639,24.14-28.842,43.421-52.92,53.155l-9.938,46.885c55.516-10.458,99.252-54.232,109.623-109.786   L325.786,276.03z"/>
  	<path d="M272.895,152.511c24.02,9.716,43.158,28.924,52.83,52.974l46.812,9.75c-10.453-55.458-54.125-99.155-109.578-109.613   L272.895,152.511z"/>
  	<path d="M201.584,329.125c-24.018-9.751-43.127-28.994-52.748-53.06l-46.783-9.747c10.373,55.484,54.031,99.217,109.469,109.727   L201.584,329.125z"/>
  </g>
</svg>
