<?xml version="1.0" encoding="utf-8"?>
<!DOCTYPE svg PUBLIC "-//W3C//DTD SVG 1.1 Tiny//EN" "http://www.w3.org/Graphics/SVG/1.1/DTD/svg11-tiny.dtd">
<svg xmlns="http://www.w3.org/2000/svg" xmlns:xlink="http://www.w3.org/1999/xlink" version="1.1" baseProfile="tiny" x="0px" y="0px" width="480px" height="480px" viewBox="0 0 480 480" xml:space="preserve">
  <g id="down_arrow">
  	<path fill-rule="evenodd" d="M237.223,56.001c-99.414,0-180,80.577-180,180.001c0,99.405,80.586,180,180,180   c99.406,0,180.002-80.595,180.002-180C417.225,136.578,336.629,56.001,237.223,56.001z M327.825,224.219l-83.123,83.127   c-4.117,4.107-10.861,4.107-14.973,0l-83.105-83.109c-4.111-4.107-4.111-10.843,0-14.954l18.232-18.251   c6.939-6.938,17.393-6.015,23.549,0.155l41.324,41.315c4.111,4.125,10.855,4.125,14.973,0l41.443-41.436   c6.947-6.955,16.979-6.532,23.477-0.018l18.203,18.203C331.936,213.359,331.936,220.111,327.825,224.219z"/>
  </g>
</svg>
