<?xml version="1.0" encoding="utf-8"?>
<!DOCTYPE svg PUBLIC "-//W3C//DTD SVG 1.1 Tiny//EN" "http://www.w3.org/Graphics/SVG/1.1/DTD/svg11-tiny.dtd">
<svg xmlns="http://www.w3.org/2000/svg" xmlns:xlink="http://www.w3.org/1999/xlink" version="1.1" baseProfile="tiny" x="0px" y="0px" width="480px" height="480px" viewBox="0 0 480 480" xml:space="preserve">
  <g id="group">
  	<path d="M340.913,226.148c-2.83,0-2.92-1.592-2.92-5.609c0-4.923,0.656-7.641,0.656-7.641c8.434,0,21.184-14.091,25.309-27.082   c2.299-7.317,15.359-8.642,15.359-28.019c0-16.973-7.5-12.274-7.5-13.543c0-1.265,0-18.471,0-28.57   c0-18.738-16.734-55.684-69.514-55.684c-52.768,0-69.498,36.945-69.498,55.684c0,6.77,0,16.632,0,22.85   c23.949,15.855,35.172,41.061,35.172,61.123v16.99c4.279,5.031,7.498,12.884,7.498,25.119c0,22.146-11.641,32.346-17.236,37.256   c-0.078,0.061-0.156,0.121-0.217,0.186c-2.031,5.238-5.125,11.002-9.064,16.447c21.988,8.563,40.143,24.726,52.033,41.268h1.312   h117.703c0,0,0-27.018,0-46.812C420.006,274.644,386.772,226.148,340.913,226.148z"/>
  	<path d="M216.29,309.232c-2.814,0-2.926-1.601-2.926-5.613c0-4.923,0.656-7.637,0.656-7.637c8.438,0,21.205-14.091,25.312-27.086   c2.312-7.317,15.377-8.642,15.377-28.022c0-16.97-7.516-12.267-7.516-13.544c0-1.26,0-18.461,0-28.565   c0-18.742-16.736-55.688-69.502-55.688c-52.779,0-69.498,36.945-69.498,55.688c0,10.104,0,27.306,0,28.565   c0,1.277-7.516-3.426-7.516,13.544c0,19.381,13.064,20.705,15.359,28.022c4.125,12.995,16.873,27.086,25.326,27.086   c0,0,0.643,2.714,0.643,7.637c0,4.013-0.096,5.613-2.922,5.613c-45.875,0-79.08,48.486-79.08,63.954c0,19.795,0,46.812,0,46.812   h117.688h117.689c0,0,0-27.018,0-46.812C295.381,357.719,262.161,309.232,216.29,309.232z"/>
  </g>
</svg>
