<?xml version="1.0" encoding="utf-8"?>
<!DOCTYPE svg PUBLIC "-//W3C//DTD SVG 1.1 Tiny//EN" "http://www.w3.org/Graphics/SVG/1.1/DTD/svg11-tiny.dtd">
<svg xmlns="http://www.w3.org/2000/svg" xmlns:xlink="http://www.w3.org/1999/xlink" version="1.1" baseProfile="tiny" x="0px" y="0px" width="480px" height="480px" viewBox="0 0 480 480" xml:space="preserve">
  <g id="help">
  	<path d="M237.225,56.001c-99.414,0-180.002,80.586-180.002,180.001c0,99.414,80.588,180.001,180.002,180.001   s180-80.587,180-180.001C417.225,136.587,336.639,56.001,237.225,56.001z M232.754,347.307c-13.404,0-24.428-11.023-24.428-24.441   c0-13.405,11.023-24.42,24.428-24.42c13.414,0,24.438,11.015,24.438,24.42C257.192,336.283,246.168,347.307,232.754,347.307z    M255.989,252.983c-7.141,10.433-4.76,25.024-24.42,25.024c-12.814,0-19.078-10.429-19.078-19.959   c0-35.457,52.148-43.495,52.148-72.695c0-16.098-10.721-25.628-28.602-25.628c-38.135,0-23.242,39.331-52.141,39.331   c-10.432,0-19.367-6.261-19.367-18.173c0-29.205,33.373-55.126,69.709-55.126c38.148,0,75.682,17.586,75.682,59.596   C309.92,224.085,265.52,238.979,255.989,252.983z"/>
  </g>
</svg>
