<?xml version="1.0" encoding="utf-8"?>
<!DOCTYPE svg PUBLIC "-//W3C//DTD SVG 1.1 Tiny//EN" "http://www.w3.org/Graphics/SVG/1.1/DTD/svg11-tiny.dtd">
<svg xmlns="http://www.w3.org/2000/svg" xmlns:xlink="http://www.w3.org/1999/xlink" version="1.1" baseProfile="tiny" x="0px" y="0px" width="480px" height="480px" viewBox="0 0 480 480" xml:space="preserve">
  <g id="list">
  	<path d="M417.223,153.203c0,3.952-3.248,7.196-7.201,7.196H64.415c-3.957,0-7.188-3.244-7.188-7.196v-64.8   c0-3.965,3.23-7.196,7.188-7.196h345.607c3.953,0,7.201,3.231,7.201,7.196V153.203z"/>
  	<path d="M417.223,268.396c0,3.961-3.248,7.206-7.201,7.206H64.415c-3.957,0-7.188-3.245-7.188-7.206v-64.795   c0-3.961,3.23-7.2,7.188-7.2h345.607c3.953,0,7.201,3.239,7.201,7.2V268.396z"/>
  	<path d="M417.223,383.61c0,3.952-3.248,7.188-7.201,7.188H64.415c-3.957,0-7.188-3.235-7.188-7.188v-64.812   c0-3.956,3.23-7.196,7.188-7.196h345.607c3.953,0,7.201,3.24,7.201,7.196V383.61z"/>
  </g>
</svg>
