<?xml version="1.0" encoding="utf-8"?>
<!DOCTYPE svg PUBLIC "-//W3C//DTD SVG 1.1 Tiny//EN" "http://www.w3.org/Graphics/SVG/1.1/DTD/svg11-tiny.dtd">
<svg xmlns="http://www.w3.org/2000/svg" xmlns:xlink="http://www.w3.org/1999/xlink" version="1.1" baseProfile="tiny" x="0px" y="0px" width="480px" height="480px" viewBox="0 0 480 480" xml:space="preserve">
  <g id="map">
  	<path d="M368.614,98.428c0-30.452-25.162-56.227-56.217-56.227c-31.057,0-56.219,24.096-56.219,56.227   c0,32.125,56.219,110.407,56.219,110.407S368.614,128.875,368.614,98.428z"/>
  	<path d="M384.569,99.726c-0.158,4.772-1.242,10.243-2.994,16.167l20.918,12.654v225.554l-64.174-36.139V199.158   c-5.713,8.75-10.408,15.527-12.781,18.919l-13.004,18.483l-13.184-18.358c-8.211-11.421-43.496-61.853-55.305-98.983   l-98.479-50.656l-88.344,51.951v256.984l88.344-56.192l99.062,50.195l86.193-42.222l86.402,48.219V120.514L384.569,99.726z    M240.53,354.437l-94.963-48.688V86.381l94.963,49.531V354.437z"/>
  </g>
</svg>
