<?xml version="1.0" encoding="utf-8"?>
<!DOCTYPE svg PUBLIC "-//W3C//DTD SVG 1.1 Tiny//EN" "http://www.w3.org/Graphics/SVG/1.1/DTD/svg11-tiny.dtd">
<svg xmlns="http://www.w3.org/2000/svg" xmlns:xlink="http://www.w3.org/1999/xlink" version="1.1" baseProfile="tiny" x="0px" y="0px" width="480px" height="480px" viewBox="0 0 480 480" xml:space="preserve">
  <g id="power">
  	<path d="M290.315,72.386v67.168c34.268,18.82,57.535,55.243,57.535,97.008c0,61.007-49.625,110.632-110.625,110.632   c-61.01,0-110.637-49.625-110.637-110.632c0-41.765,23.287-78.188,57.535-97.008V72.386   C114.807,94.8,64.633,159.789,64.633,236.562c0,95.32,77.271,172.589,172.592,172.589c95.312,0,172.576-77.269,172.576-172.589   C409.801,159.789,359.633,94.8,290.315,72.386z"/>
  	<path d="M263.795,208.461c0,9.742-7.961,17.702-17.703,17.702h-17.736c-9.742,0-17.703-7.96-17.703-17.702V66.854   c0-9.742,7.961-17.702,17.703-17.702h17.736c9.742,0,17.703,7.96,17.703,17.702V208.461z"/>
  </g>
</svg>
