<?xml version="1.0" encoding="utf-8"?>
<!DOCTYPE svg PUBLIC "-//W3C//DTD SVG 1.1 Tiny//EN" "http://www.w3.org/Graphics/SVG/1.1/DTD/svg11-tiny.dtd">
<svg xmlns="http://www.w3.org/2000/svg" xmlns:xlink="http://www.w3.org/1999/xlink" version="1.1" baseProfile="tiny" x="0px" y="0px" width="480px" height="480px" viewBox="0 0 480 480" xml:space="preserve">
  <g id="sort_by_size">
  	<path d="M417.473,153.204c0,3.952-3.25,7.188-7.201,7.188H64.668c-3.953,0-7.193-3.235-7.193-7.188V88.392   c0-3.952,3.24-7.188,7.193-7.188h345.604c3.951,0,7.201,3.235,7.201,7.188V153.204z"/>
  	<path d="M302.272,268.393c0,3.97-3.25,7.205-7.205,7.205H64.668c-3.953,0-7.193-3.235-7.193-7.205v-64.795   c0-3.957,3.24-7.205,7.193-7.205h230.398c3.955,0,7.205,3.248,7.205,7.205V268.393z"/>
  	<path d="M179.874,383.594c0,3.97-3.236,7.205-7.205,7.205h-108c-3.953,0-7.193-3.235-7.193-7.205v-64.795   c0-3.952,3.24-7.205,7.193-7.205h108c3.969,0,7.205,3.253,7.205,7.205V383.594z"/>
  </g>
</svg>
