<?xml version="1.0" encoding="utf-8"?>
<!DOCTYPE svg PUBLIC "-//W3C//DTD SVG 1.1 Tiny//EN" "http://www.w3.org/Graphics/SVG/1.1/DTD/svg11-tiny.dtd">
<svg xmlns="http://www.w3.org/2000/svg" xmlns:xlink="http://www.w3.org/1999/xlink" version="1.1" baseProfile="tiny" x="0px" y="0px" width="480px" height="480px" viewBox="0 0 480 480" xml:space="preserve">
  <g id="sound_full">
  	<path d="M141.092,151.206c-8.258,5.342-14.125,9.704-23.941,9.704H75.088c-9.828,0-17.865,8.029-17.865,17.857v125.095   c0,9.828,8.037,17.857,17.865,17.857h42.062c9.816,0,15.947,3.922,24.533,8.72l94.992,52.938   c8.586,4.781,15.609,0.669,15.609-9.159V97.236c0-9.828-6.756-13.5-15.006-8.172L141.092,151.206z"/>
  	<path d="M357.176,353c-4.928,0-9.834-2.045-13.375-6.015c-6.555-7.391-5.869-18.673,1.518-25.235   c0.311-0.264,36.164-33.14,36.164-81.544c0-48.939-35.797-81.251-36.164-81.565c-7.387-6.546-8.072-17.841-1.518-25.231   c6.557-7.378,17.854-8.063,25.227-1.519c1.977,1.751,48.197,43.485,48.197,108.315c0,64.825-46.221,106.547-48.197,108.294   C365.631,351.516,361.403,353,357.176,353L357.176,353z"/>
  	<path d="M296.004,320.642c-4.365,0-8.758-1.593-12.201-4.828c-7.215-6.748-7.58-18.061-0.838-25.266   c7.033-7.563,25.344-31.423,25.344-50.342c0-15.157-17.508-40.983-25.998-51.109c-6.338-7.563-5.338-18.846,2.234-25.171   c7.547-6.329,18.828-5.346,25.17,2.23c3.508,4.207,34.336,41.941,34.336,74.05c0,36.341-31.414,70.952-35,74.766   C305.536,318.738,300.776,320.642,296.004,320.642L296.004,320.642z"/>
  </g>
</svg>
