<?xml version="1.0" encoding="utf-8"?>
<!DOCTYPE svg PUBLIC "-//W3C//DTD SVG 1.1 Tiny//EN" "http://www.w3.org/Graphics/SVG/1.1/DTD/svg11-tiny.dtd">
<svg xmlns="http://www.w3.org/2000/svg" xmlns:xlink="http://www.w3.org/1999/xlink" version="1.1" baseProfile="tiny" x="0px" y="0px" width="480px" height="480px" viewBox="0 0 480 480" xml:space="preserve">
  <g id="star">
  	<path fill-rule="evenodd" d="M236.002,67.501l51.602,93.595c4.248,7.701,14.793,15.372,23.436,17.029l89.25,17.137   c8.643,1.657,10.791,8.284,4.775,14.704l-62.129,66.327c-6.014,6.424-10.039,18.815-8.951,27.548l11.273,90.19   c1.092,8.719-4.535,12.813-12.5,9.077l-82.273-38.593c-7.963-3.754-21.002-3.754-28.967,0l-82.281,38.593   c-7.965,3.736-13.591-0.341-12.499-9.077l11.278-90.19c1.091-8.732-2.938-21.124-8.953-27.548l-62.124-66.327   c-6.015-6.42-3.866-13.047,4.771-14.704l89.25-17.137c8.642-1.657,19.19-9.328,23.44-17.029L236.002,67.501"/>
  </g>
</svg>
