<?xml version="1.0" encoding="utf-8"?>
<!DOCTYPE svg PUBLIC "-//W3C//DTD SVG 1.1 Tiny//EN" "http://www.w3.org/Graphics/SVG/1.1/DTD/svg11-tiny.dtd">
<svg xmlns="http://www.w3.org/2000/svg" xmlns:xlink="http://www.w3.org/1999/xlink" version="1.1" baseProfile="tiny" x="0px" y="0px" width="480px" height="480px" viewBox="0 0 480 480" xml:space="preserve">
  <g id="stars_grade">
  	<path d="M142.944,414.126c-5.627,0-10.688-2.23-14.264-6.278c-3.957-4.478-5.656-10.769-4.785-17.724l10.83-86.574   c0.578-4.678-2.111-12.957-5.33-16.392l-59.639-63.69c-5.938-6.334-8.033-14.026-5.734-21.098   c2.295-7.067,8.518-12.06,17.029-13.698l85.674-16.447c4.643-0.889,11.688-6.015,13.971-10.156l40.637-73.705   c1.598-3.231,7.922-14.233,19.766-14.233c12.439,0,19.049,12.638,20.252,15.17l40.143,72.772c2.295,4.138,9.34,9.264,13.967,10.152   l85.672,16.447c8.529,1.639,14.734,6.631,17.029,13.698c2.301,7.067,0.221,14.76-5.717,21.098l-59.639,63.683   c-3.219,3.442-5.924,11.722-5.328,16.407l10.812,86.575c0.875,6.929-0.83,13.22-4.781,17.702   c-5.77,6.537-15.502,8.133-24.801,3.801l-78.984-37.062c-1.562-0.733-4.639-1.519-8.625-1.519c-3.982,0-7.076,0.785-8.637,1.511   l-78.969,37.062C149.928,413.284,146.395,414.126,142.944,414.126L142.944,414.126z M241.098,348.222   c7.051,0,13.863,1.372,19.174,3.874l72.453,33.99l-9.893-79.456c-1.498-11.981,3.594-27.651,11.848-36.457l54.717-58.432   l-78.623-15.127c-11.844-2.277-25.176-11.964-31.018-22.543l-38.658-70.115l-38.654,70.106   c-5.846,10.588-19.186,20.274-31.033,22.552l-78.605,15.088l54.703,58.471c8.262,8.806,13.357,24.476,11.855,36.47l-9.936,79.422   l72.482-33.977C227.223,349.594,234.036,348.222,241.098,348.222L241.098,348.222z"/>
  	<path d="M330.348,234.823c3.176-3.391,2.049-6.886-2.529-7.766l-47.109-9.048c-4.564-0.871-10.127-4.923-12.373-8.991l-22.285-40.4   c0,0-2.092-4.436-4.953-4.436c-2.873,0-4.793,4.142-4.793,4.142l-22.457,40.694c-2.23,4.068-7.811,8.12-12.375,8.991l-47.109,9.048   c-4.561,0.88-5.699,4.375-2.516,7.766l32.781,35.021c3.189,3.391,5.316,9.932,4.738,14.54l-5.955,47.61   c-0.578,4.612,2.391,6.765,6.611,4.793l43.42-20.377c2.109-0.984,4.875-1.476,7.654-1.476c2.766,0,5.549,0.491,7.658,1.476   l43.404,20.377c1.064,0.496,2.049,0.733,2.908,0.733c2.58,0,4.141-2.079,3.701-5.526l-5.938-47.61   c-0.578-4.608,1.549-11.149,4.721-14.54L330.348,234.823z M253.852,217.053c4.621,8.34,14.371,15.42,23.734,17.223l25.934,4.979   l-18.047,19.264c-6.545,6.969-10.264,18.462-9.061,27.92l3.266,26.197l-23.906-11.218c-5.377-2.516-10.955-3.042-14.674-3.042   V193.905L253.852,217.053z"/>
  	<path d="M138.913,409.547c-5.625,0-10.686-2.23-14.268-6.282c-3.951-4.474-5.656-10.765-4.779-17.72l10.828-86.574   c0.578-4.682-2.109-12.961-5.346-16.391l-59.621-63.69c-5.941-6.334-8.033-14.031-5.738-21.099   c2.299-7.062,8.504-12.059,17.033-13.698l85.674-16.447c4.637-0.893,11.688-6.019,13.965-10.156l40.643-73.704   c1.592-3.231,7.922-14.238,19.766-14.238c12.438,0,19.049,12.642,20.248,15.175l40.143,72.776   c2.299,4.129,9.344,9.255,13.969,10.147l85.674,16.447c8.529,1.64,14.734,6.632,17.029,13.698   c2.295,7.063,0.221,14.756-5.734,21.099l-59.627,63.682c-3.23,3.438-5.918,11.718-5.34,16.408l10.824,86.574   c0.877,6.93-0.828,13.22-4.781,17.703c-5.781,6.531-15.496,8.133-24.795,3.801l-78.984-37.066   c-1.562-0.733-4.656-1.514-8.625-1.514c-3.982,0-7.08,0.78-8.643,1.506l-78.969,37.065   C145.899,408.706,142.348,409.547,138.913,409.547L138.913,409.547z M237.069,343.639c7.045,0,13.857,1.376,19.174,3.879   l72.453,33.985l-9.893-79.452c-1.502-11.981,3.594-27.651,11.842-36.457l54.721-58.436l-78.627-15.127   c-11.844-2.273-25.17-11.96-31.012-22.539l-38.658-70.114l-38.658,70.105c-5.842,10.588-19.188,20.274-31.029,22.548L88.77,207.124   l54.703,58.47c8.25,8.806,13.363,24.476,11.861,36.466l-9.936,79.422l72.482-33.977   C223.194,345.015,230.006,343.639,237.069,343.639L237.069,343.639z"/>
  	<path d="M140.536,411.927c-5.686,0-10.812-2.257-14.418-6.352c-4-4.53-5.723-10.89-4.846-17.922l10.955-87.555   c0.59-4.732-2.129-13.107-5.395-16.58L66.52,219.111c-5.996-6.411-8.123-14.19-5.793-21.34c2.324-7.145,8.607-12.196,17.23-13.854   l86.641-16.637c4.689-0.897,11.812-6.083,14.125-10.272l41.096-74.538c1.609-3.266,8.016-14.397,19.984-14.397   c12.594,0,19.266,12.784,20.486,15.347l40.607,73.597c2.312,4.182,9.436,9.367,14.125,10.265l86.641,16.637   c8.625,1.657,14.906,6.705,17.219,13.854c2.33,7.146,0.221,14.924-5.799,21.34L352.77,283.51   c-3.248,3.481-5.984,11.856-5.389,16.598l10.938,87.554c0.889,7.007-0.828,13.367-4.828,17.905   c-5.846,6.605-15.688,8.224-25.08,3.84l-79.875-37.479c-1.592-0.746-4.701-1.54-8.732-1.54c-4.033,0-7.141,0.794-8.719,1.531   l-79.875,37.48C147.616,411.076,144.022,411.927,140.536,411.927L140.536,411.927z M239.803,345.276   c7.141,0,14.014,1.389,19.408,3.913l73.264,34.378l-10.014-80.357c-1.502-12.115,3.654-27.967,11.98-36.868l55.348-59.096   l-79.518-15.299c-11.969-2.304-25.469-12.098-31.375-22.798L239.803,98.24l-39.094,70.9c-5.906,10.709-19.393,20.503-31.375,22.807   l-79.498,15.265l55.324,59.13c8.344,8.901,13.5,24.753,11.986,36.876l-10.049,80.328l73.312-34.365   C225.786,346.665,232.676,345.276,239.803,345.276L239.803,345.276z"/>
  	<path fill-rule="evenodd" d="M234.959,163.338c0,0,1.936-4.186,4.844-4.186c2.904,0,5.014,4.479,5.014,4.479l22.535,40.867   c2.277,4.107,7.904,8.206,12.512,9.091l47.658,9.151c4.607,0.884,5.764,4.422,2.545,7.852l-33.17,35.418   c-3.205,3.426-5.357,10.044-4.768,14.699l6.002,48.159c0.596,4.646-2.42,6.838-6.674,4.85l-43.904-20.615   c-4.268-1.993-11.236-1.993-15.484,0l-43.922,20.615c-4.25,1.988-7.266-0.194-6.688-4.85l6.031-48.159   c0.578-4.655-1.562-11.273-4.781-14.699l-33.156-35.418c-3.219-3.43-2.08-6.968,2.545-7.852l47.641-9.151   c4.613-0.885,10.252-4.983,12.518-9.091L234.959,163.338z"/>
  </g>
</svg>
