<?xml version="1.0" encoding="utf-8"?>
<!DOCTYPE svg PUBLIC "-//W3C//DTD SVG 1.1 Tiny//EN" "http://www.w3.org/Graphics/SVG/1.1/DTD/svg11-tiny.dtd">
<svg xmlns="http://www.w3.org/2000/svg" xmlns:xlink="http://www.w3.org/1999/xlink" version="1.1" baseProfile="tiny" x="0px" y="0px" width="480px" height="480px" viewBox="0 0 480 480" xml:space="preserve">
  <g id="warning">
  	<path d="M410.745,345.354l-146.67-245.171c-14.826-24.783-39.076-24.774-53.881,0.004L63.682,345.345   c-14.803,24.783-3.301,45.061,25.582,45.061h295.943C414.077,390.405,425.565,370.132,410.745,345.354z M221.481,185.993   c0-8.672,7.094-15.752,15.752-15.752c8.664,0,15.748,7.08,15.748,15.752v73.541c0,8.676-7.084,15.748-15.748,15.748   c-8.658,0-15.752-7.072-15.752-15.748V185.993z M237.233,342.765c-11.598,0-21.002-9.414-21.002-20.998   c0-11.61,9.404-20.995,21.002-20.995c11.602,0,21,9.385,21,20.995C258.233,333.351,248.834,342.765,237.233,342.765z"/>
  </g>
</svg>
