<?xml version="1.0" encoding="utf-8"?>
<!DOCTYPE svg PUBLIC "-//W3C//DTD SVG 1.1 Tiny//EN" "http://www.w3.org/Graphics/SVG/1.1/DTD/svg11-tiny.dtd">
<svg xmlns="http://www.w3.org/2000/svg" xmlns:xlink="http://www.w3.org/1999/xlink" version="1.1" baseProfile="tiny" x="0px" y="0px" width="480px" height="480px" viewBox="0 0 480 480" xml:space="preserve">
  <g id="add">
  	<path fill-rule="evenodd" d="M237.223,55.997c-99.406,0-180,80.587-180,180.001c0,99.406,80.594,180.001,180,180.001   c99.424,0,180.002-80.595,180.002-180.001C417.225,136.584,336.647,55.997,237.223,55.997z M329.221,256   c0,4.396-3.598,7.999-7.998,7.999h-48c-4.4,0-7.998,3.604-7.998,8v47.998c0,4.401-3.604,8.004-8.004,8.004h-40   c-4.396,0-7.998-3.603-7.998-8.004v-47.998c0-4.396-3.604-8-8-8h-47.998c-4.4,0-8-3.603-8-7.999v-39.999c0-4.401,3.6-8.004,8-8.004   h47.998c4.396,0,8-3.598,8-7.999v-47.999c0-4.396,3.602-7.999,7.998-7.999h40c4.4,0,8.004,3.603,8.004,7.999v47.999   c0,4.401,3.598,7.999,7.998,7.999h48c4.4,0,7.998,3.603,7.998,8.004V256z"/>
  </g>
</svg>
