<?xml version="1.0" encoding="utf-8"?>
<!DOCTYPE svg PUBLIC "-//W3C//DTD SVG 1.1 Tiny//EN" "http://www.w3.org/Graphics/SVG/1.1/DTD/svg11-tiny.dtd">
<svg xmlns="http://www.w3.org/2000/svg" xmlns:xlink="http://www.w3.org/1999/xlink" version="1.1" baseProfile="tiny" x="0px" y="0px" width="480px" height="480px" viewBox="0 0 480 480" xml:space="preserve">
  <g id="attachment">
  	<path d="M108.319,416.502c-12.971,0-25.236-4.858-34.158-13.655c-9.906-9.769-15.014-23.691-14.043-38.205l4.012-59.812   c1.578-23.627,15.674-55.468,32.064-72.531L260.897,60.97c6.842-7.11,18.143-7.33,25.234-0.5   c7.111,6.843,7.326,18.142,0.502,25.235L121.926,257.047c-10.781,11.204-21.141,34.641-22.186,50.155l-4.016,59.816   c-0.281,4.216,0.971,7.904,3.498,10.402c2.516,2.485,6.205,3.72,10.438,3.331l48.754-3.97c15.48-1.264,38.73-11.968,49.764-22.923   l171.047-170c3.311-3.296,5.127-7.653,5.092-12.296c-0.029-4.655-1.891-8.982-5.25-12.236l-32.342-31.375   c-6.986-6.765-18.656-6.64-25.5,0.315L190.911,260.705c-4.076,4.155-6.449,9.406-6.342,14.062c0.061,2.42,0.781,4.297,2.141,5.548   c4.201,3.892,14.967,2.653,22.607-4.702l101.469-97.987c7.096-6.843,18.375-6.64,25.234,0.453   c6.844,7.08,6.641,18.376-0.436,25.219l-101.486,97.986c-20.842,20.14-52.969,22.482-71.607,5.251   c-8.486-7.831-13.314-18.815-13.611-30.922c-0.342-14.299,5.703-28.86,16.594-39.939L295.77,103.234   c20.658-20.998,54.645-21.404,75.797-0.906l32.346,31.376c10.283,9.971,15.998,23.328,16.094,37.64   c0.078,14.298-5.471,27.737-15.627,37.829l-171.045,170c-16.795,16.688-48.42,31.268-72.018,33.188l-48.766,3.969   C111.131,416.438,109.725,416.502,108.319,416.502L108.319,416.502z"/>
  </g>
</svg>
