<?xml version="1.0" encoding="utf-8"?>
<!DOCTYPE svg PUBLIC "-//W3C//DTD SVG 1.1 Tiny//EN" "http://www.w3.org/Graphics/SVG/1.1/DTD/svg11-tiny.dtd">
<svg xmlns="http://www.w3.org/2000/svg" xmlns:xlink="http://www.w3.org/1999/xlink" version="1.1" baseProfile="tiny" x="0px" y="0px" width="480px" height="480px" viewBox="0 0 480 480" xml:space="preserve">
  <g id="cross2">
  	<path d="M275.147,239.945l32.328-32.329c2.094-2.079,3.232-4.85,3.232-7.805c0.018-2.955-1.139-5.734-3.219-7.81l-19.545-19.544   c-4.154-4.168-11.455-4.155-15.592,0l-32.346,32.341l-32.342-32.346c-4.172-4.154-11.438-4.154-15.609,0.005l-19.533,19.544   c-2.078,2.08-3.236,4.854-3.236,7.801c0,2.96,1.158,5.729,3.236,7.805l32.342,32.338l-32.342,32.333   c-2.078,2.07-3.236,4.841-3.236,7.796s1.158,5.729,3.236,7.817l19.545,19.545c4.172,4.159,11.438,4.159,15.598-0.004l32.342-32.337   l32.328,32.332c2.08,2.084,4.846,3.232,7.812,3.232c2.939,0,5.717-1.148,7.797-3.228l19.531-19.523   c2.094-2.084,3.25-4.866,3.232-7.835c0-2.964-1.156-5.738-3.232-7.792L275.147,239.945z"/>
  	<path d="M240.006,124.286c63.797,0,115.701,51.908,115.701,115.715c0,63.799-51.904,115.715-115.701,115.715   c-63.812,0-115.721-51.916-115.721-115.715C124.286,176.194,176.194,124.286,240.006,124.286 M240.006,60   c-99.424,0-180.002,80.591-180.002,180.001s80.578,180.001,180.002,180.001c99.406,0,180-80.591,180-180.001S339.413,60,240.006,60   L240.006,60z"/>
  </g>
</svg>
