<?xml version="1.0" encoding="utf-8"?>
<!DOCTYPE svg PUBLIC "-//W3C//DTD SVG 1.1 Tiny//EN" "http://www.w3.org/Graphics/SVG/1.1/DTD/svg11-tiny.dtd">
<svg xmlns="http://www.w3.org/2000/svg" xmlns:xlink="http://www.w3.org/1999/xlink" version="1.1" baseProfile="tiny" x="0px" y="0px" width="480px" height="480px" viewBox="0 0 480 480" xml:space="preserve">
  <g id="directions">
  	<path d="M416.926,229.886L251.208,64.175c-5.562-5.566-14.652-5.566-20.219,0L65.274,229.886c-5.566,5.565-5.566,14.656,0,20.222   l165.715,165.721c5.566,5.565,14.656,5.565,20.219,0l165.719-165.721C422.489,244.542,422.489,235.451,416.926,229.886z    M319.208,226.995l-50.859,39.629c-6.199,4.841-11.277,2.355-11.277-5.501v-21.595h-24.533c-3.939,0-7.156,3.219-7.156,7.158   v57.137c0,3.922-3.219,7.141-7.141,7.141h-28.609c-3.939,0-7.158-3.219-7.158-7.141V203.778c0-3.938,3.219-7.157,7.158-7.157   h67.439v-21.318c0-7.869,5.078-10.351,11.277-5.518l50.859,39.633C325.43,214.246,325.43,222.167,319.208,226.995z"/>
  </g>
</svg>
