<?xml version="1.0" encoding="utf-8"?>
<!DOCTYPE svg PUBLIC "-//W3C//DTD SVG 1.1 Tiny//EN" "http://www.w3.org/Graphics/SVG/1.1/DTD/svg11-tiny.dtd">
<svg xmlns="http://www.w3.org/2000/svg" xmlns:xlink="http://www.w3.org/1999/xlink" version="1.1" baseProfile="tiny" x="0px" y="0px" width="480px" height="480px" viewBox="0 0 480 480" xml:space="preserve">
  <g id="edit">
  	<path d="M408.038,177.735L292.27,61.978c-7.951-7.961-20.986-7.961-28.938,0l-161.6,161.586c-2.648,2.654-5.414,7.844-6.148,11.516   L60.561,410.735c-0.734,3.672,1.646,5.967,5.297,5.078l169.133-41.096c3.654-0.889,8.803-3.797,11.451-6.437l161.596-161.592   C416.006,198.721,416.006,185.704,408.038,177.735z M219.114,361.533l-87.904,21.063c-3.65,0.871-8.805-0.578-11.455-3.236   l-25.49-25.485c-2.656-2.653-4.236-7.844-3.516-11.528l17.928-91.472c0.719-3.685,3.484-4.53,6.125-1.873l106.125,106.124   C223.584,357.767,222.772,360.657,219.114,361.533z"/>
  </g>
</svg>
