<?xml version="1.0" encoding="utf-8"?>
<!DOCTYPE svg PUBLIC "-//W3C//DTD SVG 1.1 Tiny//EN" "http://www.w3.org/Graphics/SVG/1.1/DTD/svg11-tiny.dtd">
<svg xmlns="http://www.w3.org/2000/svg" xmlns:xlink="http://www.w3.org/1999/xlink" version="1.1" baseProfile="tiny" x="0px" y="0px" width="480px" height="480px" viewBox="0 0 480 480" xml:space="preserve">
  <g id="expand_arrows">
  	<path d="M381.381,157.923l26.037,26.021c5.188,5.194,9.436,3.43,9.436-3.914V55.997H292.817c-7.344,0-9.1,4.25-3.912,9.44   l26.404,26.405c5.189,5.189,5.189,13.689,0,18.875l-78.084,78.084l-78.088-78.084c-5.186-5.186-5.186-13.686,0-18.875   l26.408-26.405c5.186-5.19,3.43-9.44-3.918-9.44H57.59V180.03c0,7.344,4.25,9.108,9.436,3.914l26.043-26.021   c5.186-5.198,13.686-5.198,18.875,0l78.084,78.075l-78.709,78.714c-5.189,5.187-13.689,5.187-18.875,0l-25.418-25.408   c-5.186-5.186-9.436-3.43-9.436,3.914v122.781h122.791c7.334,0,9.1-4.249,3.904-9.436L158.51,380.78   c-5.186-5.187-5.186-13.686,0-18.876l78.715-78.71l78.709,78.71c5.186,5.19,5.186,13.689,0,18.876l-25.779,25.783   c-5.189,5.187-3.422,9.436,3.914,9.436h122.785V293.218c0-7.344-4.248-9.1-9.436-3.914l-25.412,25.408   c-5.189,5.187-13.689,5.187-18.875,0l-78.711-78.714l78.084-78.075C367.692,152.725,376.196,152.725,381.381,157.923z"/>
  </g>
</svg>
