<?xml version="1.0" encoding="utf-8"?>
<!DOCTYPE svg PUBLIC "-//W3C//DTD SVG 1.1 Tiny//EN" "http://www.w3.org/Graphics/SVG/1.1/DTD/svg11-tiny.dtd">
<svg xmlns="http://www.w3.org/2000/svg" xmlns:xlink="http://www.w3.org/1999/xlink" version="1.1" baseProfile="tiny" x="0px" y="0px" width="480px" height="480px" viewBox="0 0 480 480" xml:space="preserve">
  <g id="eye">
  	<path d="M411.428,192.979c0,0-55.924-73.29-170.008-73.29c-113.18,0-173.992,72.198-173.992,72.198   c-11.994,14.233-11.264,34.654,1.623,45.358c8.244,6.86,19.557,8.111,29.805,4.453c14.893,47.049,56.266,110.61,139.992,110.61   c82.844,0,124.516-63.721,139.734-110.736c9.814,3.689,20.723,2.813,29.002-3.403C420.989,228.121,422.723,207.778,411.428,192.979   z M238.848,311.685c-83.99,0-103.1-87.093-105.092-97.594c14.561-10.545,37.359-23.251,68.217-29.533l16.609,34.33l-43.865-15.062   c-2.602,6.985-4.094,14.497-4.094,22.388c0,35.534,28.803,64.312,64.32,64.312c35.521,0,64.312-28.778,64.312-64.312   c0-15.484-5.484-29.688-14.592-40.793c27.543,6.402,47.434,18.061,60.199,27.794C342.223,225.605,320.694,311.685,238.848,311.685z   "/>
  </g>
</svg>
