<?xml version="1.0" encoding="utf-8"?>
<!DOCTYPE svg PUBLIC "-//W3C//DTD SVG 1.1 Tiny//EN" "http://www.w3.org/Graphics/SVG/1.1/DTD/svg11-tiny.dtd">
<svg xmlns="http://www.w3.org/2000/svg" xmlns:xlink="http://www.w3.org/1999/xlink" version="1.1" baseProfile="tiny" x="0px" y="0px" width="480px" height="480px" viewBox="0 0 480 480" xml:space="preserve">
  <g id="home">
  	<path d="M400.336,268.281c-2.736,2.921-7.379,3.081-10.299,0.346L240.668,129.156c-2.92-2.735-7.727-2.735-10.656,0L84.389,264.907   c-2.938,2.749-7.562,2.576-10.299-0.357l-14.92-16.003c-2.734-2.921-2.57-7.563,0.359-10.294l170.5-158.955   c2.938-2.735,7.736-2.735,10.67,0.018l174.211,162.669c2.924,2.735,3.094,7.378,0.344,10.312L400.336,268.281z"/>
  	<path d="M235.333,154.331L112.577,268.765v118.645c0,4.029,3.312,7.344,7.352,7.344h80.68V291.891c0-4.03,3.311-7.344,7.354-7.344   h58.771c4.047,0,7.344,3.313,7.344,7.344v102.862h80.943c4.047,0,7.344-3.314,7.344-7.344V272.954L235.333,154.331z"/>
  	<path d="M361.881,94.593c0-4.043-3.314-7.356-7.361-7.356h-44.076c-4.031,0-7.344,3.313-7.344,7.356v12.831l58.781,55.342V94.593z"/>
  </g>
</svg>
