<?xml version="1.0" encoding="utf-8"?>
<!DOCTYPE svg PUBLIC "-//W3C//DTD SVG 1.1 Tiny//EN" "http://www.w3.org/Graphics/SVG/1.1/DTD/svg11-tiny.dtd">
<svg xmlns="http://www.w3.org/2000/svg" xmlns:xlink="http://www.w3.org/1999/xlink" version="1.1" baseProfile="tiny" x="0px" y="0px" width="480px" height="480px" viewBox="0 0 480 480" xml:space="preserve">
  <g id="info">
  	<path d="M237.225,55.997c-99.414,0-180,80.587-180,180.001c0,99.415,80.586,180.001,180,180.001   c99.406,0,179.998-80.586,179.998-180.001C417.223,136.584,336.631,55.997,237.225,55.997z M267.225,341.281   c0,4.124-3.375,7.498-7.498,7.498h-45.002c-4.123,0-7.502-3.374-7.502-7.498v-120c0-4.115,3.379-7.503,7.502-7.503h45.002   c4.123,0,7.498,3.388,7.498,7.503V341.281z M267.225,183.211c0,4.124-3.375,7.498-7.498,7.498h-45.002   c-4.123,0-7.502-3.374-7.502-7.498v-52.499c0-4.125,3.379-7.503,7.502-7.503h45.002c4.123,0,7.498,3.378,7.498,7.503V183.211z"/>
  </g>
</svg>
