<?xml version="1.0" encoding="utf-8"?>
<!DOCTYPE svg PUBLIC "-//W3C//DTD SVG 1.1 Tiny//EN" "http://www.w3.org/Graphics/SVG/1.1/DTD/svg11-tiny.dtd">
<svg xmlns="http://www.w3.org/2000/svg" xmlns:xlink="http://www.w3.org/1999/xlink" version="1.1" baseProfile="tiny" x="0px" y="0px" width="480px" height="480px" viewBox="0 0 480 480" xml:space="preserve">
  <g id="lock">
  	<path d="M349.321,189.473h-8.625v-66.818c0-37.941-31.047-68.984-68.98-68.984h-68.984c-37.941,0-68.98,31.043-68.98,68.984v66.818   h-8.625c-14.229,0-25.865,11.641-25.865,25.874v172.455c0,14.225,11.637,25.865,25.865,25.865h224.195   c14.232,0,25.869-11.641,25.869-25.865V215.347C375.19,201.113,363.553,189.473,349.321,189.473z M254.469,308.894v54.479h-34.49   v-54.479c-11.303-6.147-19.057-17.982-19.057-31.75c0-20.045,16.248-36.302,36.303-36.302c20.037,0,36.293,16.257,36.293,36.302   C273.518,290.911,265.76,302.746,254.469,308.894z M290.596,189.473H183.854v-60.359c0-18.967,15.512-34.481,34.49-34.481H256.1   c18.967,0,34.496,15.515,34.496,34.481V189.473z"/>
  </g>
</svg>
