<?xml version="1.0" encoding="utf-8"?>
<!DOCTYPE svg PUBLIC "-//W3C//DTD SVG 1.1 Tiny//EN" "http://www.w3.org/Graphics/SVG/1.1/DTD/svg11-tiny.dtd">
<svg xmlns="http://www.w3.org/2000/svg" xmlns:xlink="http://www.w3.org/1999/xlink" version="1.1" baseProfile="tiny" x="0px" y="0px" width="480px" height="480px" viewBox="0 0 480 480" xml:space="preserve">
  <g id="plus">
  	<path d="M417.223,202.244c0-6.191-5.064-11.253-11.252-11.253H293.483c-6.186,0-11.246-5.069-11.246-11.247V67.252   c0-6.191-5.066-11.252-11.254-11.252h-67.521c-6.183,0-11.252,5.061-11.252,11.252v112.492c0,6.178-5.062,11.247-11.248,11.247   H68.474c-6.183,0-11.252,5.062-11.252,11.253v67.504c0,6.188,5.069,11.253,11.252,11.253h112.488   c6.187,0,11.248,5.061,11.248,11.248v112.5c0,6.188,5.069,11.252,11.252,11.252h67.521c6.188,0,11.254-5.064,11.254-11.252v-112.5   c0-6.188,5.061-11.248,11.246-11.248h112.488c6.188,0,11.252-5.065,11.252-11.253V202.244z"/>
  </g>
</svg>
