<?xml version="1.0" encoding="utf-8"?>
<!DOCTYPE svg PUBLIC "-//W3C//DTD SVG 1.1 Tiny//EN" "http://www.w3.org/Graphics/SVG/1.1/DTD/svg11-tiny.dtd">
<svg xmlns="http://www.w3.org/2000/svg" xmlns:xlink="http://www.w3.org/1999/xlink" version="1.1" baseProfile="tiny" x="0px" y="0px" width="480px" height="480px" viewBox="0 0 480 480" xml:space="preserve">
  <g id="search">
  	<path d="M411.674,359.719l-81.021-81.014c-6.092-6.096-15.35-7.093-22.578-3.141l-17.283-17.284   c14.721-20.903,23.449-46.324,23.449-73.777c0-70.861-57.65-128.504-128.511-128.504c-70.857,0-128.508,57.643-128.508,128.504   c0,70.856,57.65,128.516,128.508,128.516c27.336,0,52.649-8.642,73.494-23.251l17.4,17.405c-3.746,7.17-2.697,16.235,3.305,22.249   l81.029,81.019c7.4,7.403,19.516,7.403,26.914,0l23.803-23.799C419.075,379.237,419.075,367.127,411.674,359.719z M185.729,265.421   c-44.677,0-80.914-36.233-80.914-80.918c0-44.673,36.237-80.91,80.914-80.91c44.689,0,80.914,36.237,80.914,80.91   C266.643,229.188,230.419,265.421,185.729,265.421z"/>
  </g>
</svg>
