<?xml version="1.0" encoding="utf-8"?>
<!DOCTYPE svg PUBLIC "-//W3C//DTD SVG 1.1 Tiny//EN" "http://www.w3.org/Graphics/SVG/1.1/DTD/svg11-tiny.dtd">
<svg xmlns="http://www.w3.org/2000/svg" xmlns:xlink="http://www.w3.org/1999/xlink" version="1.1" baseProfile="tiny" x="0px" y="0px" width="480px" height="480px" viewBox="0 0 480 480" xml:space="preserve">
  <g id="settings">
  	<path d="M396.903,153.674c-1.445-3.533-3.975-5.064-5.627-3.408c-1.648,1.645-4.6,3.611-6.553,4.345   c-1.951,0.751-8.443-3.546-11.133-6.234h-0.008c-2.688-2.701-5.5-6.497-6.242-8.452c-0.734-1.954,3.555-8.439,6.242-11.14   l0.086-0.078c2.697-2.705,2.783-7.188,0.186-9.983l-31.818-29.33c-2.99-2.36-6.805-1.984-8.471,0.828   c-1.67,2.796-4.436,6.079-6.148,7.283c-1.707,1.187-9.059-1.363-12.326-3.313c-3.273-1.938-6.928-4.94-8.133-6.641   c-1.195-1.721,1.053-8.533,2.611-11.144c1.553-2.623-0.104-5.825-3.689-7.106l-47.986-12.378c-3.758-0.621-6.824,1.644-6.824,5.048   c0,3.408-0.703,7.749-1.559,9.655c-0.857,1.907-8.482,3.47-12.288,3.47s-8.478-0.704-10.381-1.562   c-1.906-0.858-3.464-8.154-3.464-11.562c0-3.404-3.068-5.669-6.826-5.048L168.566,69.3c-3.586,1.281-5.242,4.483-3.685,7.106   c1.562,2.61,3.028,6.454,3.262,8.534c0.246,2.062-5.514,7.312-8.789,9.25c-3.266,1.95-7.641,3.731-9.716,3.969   c-2.08,0.233-7.08-5.143-8.759-7.938c-1.665-2.812-5.483-3.188-8.478-0.828l-31.819,29.33c-2.594,2.796-2.498,7.278,0.193,9.983   l0.087,0.078c2.688,2.7,5.501,6.497,6.243,8.452c0.742,1.954-3.556,8.438-6.252,11.14c-2.684,2.688-6.489,5.501-8.443,6.234   c-1.955,0.733-7.594-2.7-9.242-4.345c-1.647-1.656-4.181-0.125-5.626,3.408c0,0-20.321,49.578-20.321,81.515   c0,99.423,80.586,180.001,180.001,180.001c99.415,0,180-80.578,180-180.001C417.223,203.252,396.903,153.674,396.903,153.674z    M237.223,326.004c-49.703,0-90-40.297-90-90c0-40.612,26.905-74.908,63.854-86.113l23.052-46.109c1.705-3.404,4.483-3.404,6.188,0   l23.057,46.109c36.953,11.205,63.85,45.501,63.85,86.113C327.223,285.707,286.926,326.004,237.223,326.004z"/>
  	<path d="M237.223,173.689c-34.36,0-62.306,27.953-62.306,62.314c0,34.356,27.945,62.297,62.306,62.297   c34.36,0,62.305-27.94,62.305-62.297C299.528,201.643,271.583,173.689,237.223,173.689z"/>
  </g>
</svg>
