<?xml version="1.0" encoding="utf-8"?>
<!DOCTYPE svg PUBLIC "-//W3C//DTD SVG 1.1 Tiny//EN" "http://www.w3.org/Graphics/SVG/1.1/DTD/svg11-tiny.dtd">
<svg xmlns="http://www.w3.org/2000/svg" xmlns:xlink="http://www.w3.org/1999/xlink" version="1.1" baseProfile="tiny" x="0px" y="0px" width="480px" height="480px" viewBox="0 0 480 480" xml:space="preserve">
  <g id="sound_off">
  	<path d="M139.993,157.362c-8.344,5.389-14.264,9.811-24.205,9.811H73.29c-9.936,0-18.061,8.111-18.061,18.048v126.454   c0,9.937,8.125,18.061,18.061,18.061h42.498c9.941,0,16.137,3.952,24.812,8.797l96.012,53.53c8.68,4.828,15.781,0.673,15.781-9.264   V102.813c0-9.936-6.83-13.655-15.174-8.267L139.993,157.362z"/>
  	<path d="M373.049,255.517l39.547-39.563c3.506-3.512,3.506-9.25,0-12.763l-12.768-12.783c-3.516-3.499-9.264-3.499-12.771,0   l-39.555,39.563l-39.547-39.563c-3.508-3.499-9.258-3.499-12.775,0l-12.766,12.783c-3.518,3.513-3.518,9.251,0,12.763   l39.547,39.563l-39.547,39.53c-3.518,3.516-3.518,9.268,0,12.783l12.766,12.767c3.518,3.499,9.268,3.499,12.775,0l39.547-39.547   l39.555,39.547c3.508,3.499,9.256,3.499,12.771,0l12.768-12.767c3.506-3.516,3.506-9.268,0-12.783L373.049,255.517z"/>
  </g>
</svg>
